<svg width="107" height="25" viewBox="0 0 107 25" fill="none" xmlns="http://www.w3.org/2000/svg">
<g clip-path="url(#clip0_160_8369)">
<path d="M34.1333 17.5152V7.05537C34.1333 6.44361 34.4197 6.15625 34.9548 6.15625H35.2412C35.8147 6.15625 36.1012 6.44287 36.1012 7.05537V16.8265H41.4704C42.0624 16.8265 42.3873 17.1131 42.3873 17.6678V17.7441C42.3873 18.2988 42.0624 18.6047 41.4704 18.6047H35.1842C34.5537 18.6047 34.1333 18.184 34.1333 17.5152Z" fill="#FE0195"/>
<path d="M44.2219 17.5152V7.34197C44.2219 6.67245 44.6423 6.23251 45.2728 6.23251H52.4382C53.0495 6.23251 53.3552 6.53839 53.3552 7.05535V7.17015C53.3552 7.70562 53.0495 7.99298 52.4382 7.99298H46.1898V11.4539H51.0239C51.6545 11.4539 51.9409 11.7213 51.9409 12.2383V12.2953C51.9409 12.8308 51.6352 13.1174 51.0239 13.1174H46.1898V16.8649H52.5529C53.1642 16.8649 53.4514 17.1331 53.4514 17.6493V17.7448C53.4514 18.2995 53.165 18.6054 52.5529 18.6054H45.2728C44.6423 18.6054 44.2219 18.1847 44.2219 17.516V17.5152Z" fill="#FE0195"/>
<path d="M59.358 12.2945L55.4023 6.88279C55.3068 6.74947 55.8419 6.06069 56.5679 6.06069C56.969 6.06069 57.3702 6.25177 57.6573 6.71096L60.6761 11.1095L63.8095 6.69244C64.1152 6.214 64.4786 6.02292 64.8227 6.02292C65.4917 6.02292 66.0268 6.71096 65.9306 6.84501L61.8987 12.3138L65.9306 17.7441C66.0261 17.8781 65.5102 18.5662 64.7842 18.5662C64.4023 18.5662 63.982 18.3751 63.6948 17.9159L60.5799 13.4603L57.4079 17.9344C57.083 18.4506 56.7389 18.6039 56.3948 18.6039C55.7257 18.6039 55.1907 17.9152 55.2869 17.7818L59.3565 12.2938L59.358 12.2945Z" fill="#FE0195"/>
<path d="M67.2414 18.0122L71.6359 6.65393C71.7891 6.25251 72.0948 6.02292 72.9925 6.02292C73.8902 6.02292 74.1966 6.25251 74.349 6.65393L78.7821 18.0122C78.8398 18.1655 78.2855 18.6054 77.6934 18.6054C77.2538 18.6054 76.795 18.3951 76.5278 17.6878L75.4384 14.8771H70.4895L69.4002 17.707C69.1515 18.3951 68.7311 18.6054 68.3108 18.6054C67.7372 18.6054 67.1836 18.1847 67.2406 18.0122H67.2414ZM74.9418 13.2885L72.9547 8.04927L70.9676 13.2885H74.9418Z" fill="#FE0195"/>
<path d="M80.209 7.17016C80.209 6.50063 80.6486 6.07996 81.3361 6.07996H81.852C82.6164 6.07996 82.8266 6.36658 83.1323 7.07462L86.0556 13.6721L88.9981 7.07462C89.3037 6.34806 89.5332 6.07996 90.2592 6.07996H90.7373C91.444 6.07996 91.9029 6.50063 91.9029 7.17016V17.7063C91.9029 18.2988 91.655 18.6047 91.0814 18.6047H90.8135C90.2592 18.6047 90.0298 18.2988 90.0298 17.7063V8.62327L87.2974 14.7808C87.0872 15.2778 86.8771 15.6222 86.0363 15.6222C85.1956 15.6222 85.0047 15.2778 84.7752 14.7808L82.0806 8.68104V17.7071C82.0806 18.2996 81.8512 18.6054 81.2784 18.6054H80.9727C80.4377 18.6054 80.2083 18.2996 80.2083 17.7071V7.17016H80.209Z" fill="#FE0195"/>
<path d="M93.8254 12.199C93.8254 8.41293 96.4431 5.73557 100.092 5.73557C103.742 5.73557 106.341 8.37442 106.341 12.1605C106.341 15.9466 103.742 18.6047 100.074 18.6047C96.4053 18.6047 93.8254 15.9658 93.8254 12.199ZM104.354 12.199C104.354 9.44536 102.577 7.47604 100.074 7.47604C97.5709 7.47604 95.8125 9.38833 95.8125 12.1612C95.8125 14.9341 97.5894 16.865 100.092 16.865C102.595 16.865 104.354 14.9527 104.354 12.199Z" fill="#FE0195"/>
<path d="M27.7061 6.91464L25.6953 4.49131C25.6923 4.48761 25.6894 4.48391 25.6864 4.48021L22.5885 0.862245C22.1762 0.380837 21.5768 0.104584 20.9433 0.104584H7.55388C6.92037 0.104584 6.32091 0.380837 5.90869 0.862245L2.89437 4.38318C2.88919 4.38911 2.88475 4.39429 2.88031 4.40022L0.831048 6.91464C0.152401 7.74785 0.180524 8.93285 0.897655 9.73273L3.19484 12.2938L12.6552 23.3462C13.0674 23.8276 13.6669 24.1038 14.3004 24.1038C14.9339 24.1038 15.5333 23.8276 15.9456 23.3462L25.3563 12.3516L27.6639 9.73273C28.3744 8.92619 28.3914 7.74118 27.7053 6.9139L27.7061 6.91464ZM14.3122 15.6859L8.07045 8.52625C7.96906 8.40997 7.96906 8.23518 8.07045 8.1189L13.4301 1.96282H15.0708L20.5029 8.12631C20.6051 8.24185 20.6058 8.41737 20.5044 8.53365L14.3122 15.6859ZM4.5847 11.0614L2.28011 8.49218C2.17798 8.37812 2.17354 8.20852 2.27049 8.08928L4.31235 5.58374L7.31927 2.07095C7.37848 2.00207 7.46359 1.96282 7.55462 1.96282H10.9678L6.67023 6.89909C5.96272 7.71156 5.96346 8.93655 6.67097 9.74902L13.0778 17.0975L11.3845 19.0054L4.59876 11.0784C4.59432 11.0733 4.58914 11.0673 4.5847 11.0622V11.0614ZM14.5357 22.1375C14.4551 22.2315 14.3537 22.2456 14.3004 22.2456C14.2471 22.2456 14.1457 22.2315 14.065 22.1375L12.6027 20.4289L14.3122 18.5025L16.0063 20.4185L14.535 22.1375H14.5357ZM26.2718 8.50477L23.9606 11.1288C23.9606 11.1288 23.9546 11.1355 23.9517 11.1384L17.2274 18.9943L15.5489 17.096L21.9083 9.75124C22.6151 8.93433 22.6099 7.70785 21.8958 6.89761L17.5471 1.96356H20.944C21.0343 1.96356 21.1202 2.00281 21.1794 2.07169L24.2721 5.68446L26.2777 8.10261C26.3754 8.22111 26.3732 8.38997 26.2718 8.50551V8.50477Z" fill="#FE0195"/>
</g>
<defs>
<clipPath id="clip0_160_8369">
<rect width="106" height="24" fill="white" transform="translate(0.34082 0.104584)"/>
</clipPath>
</defs>
</svg>
