<svg width="109" height="80" viewBox="0 0 109 80" fill="none" xmlns="http://www.w3.org/2000/svg">
<g clip-path="url(#clip0_5518_15056)">
<path fill-rule="evenodd" clip-rule="evenodd" d="M64.8213 55.3422V46.5838H-0.345703V55.3422H64.8213Z" fill="url(#paint0_radial_5518_15056)"/>
<path d="M8.09451 53.6967L6.89362 51.5951C7.57066 51.309 7.9061 50.7842 7.9061 50.0235C7.9061 49.4301 7.7036 48.9838 7.29157 48.6835C6.87953 48.3824 6.34159 48.2292 5.67159 48.2292H3.45117V53.6967H5.10636V51.8742H5.28069L6.30021 53.6967H8.09451ZM5.10636 49.5701H5.63021C6.0625 49.5701 6.27908 49.7374 6.27908 50.0799C6.27908 50.3801 6.0625 50.5826 5.62317 50.5826H5.10636V49.5701ZM16.889 48.2292H12.9368V53.6967H16.9102V52.3135H14.5577V51.581H16.7077V50.2894H14.5577V49.6053H16.889V48.2292ZM23.3029 52.914H25.1949L25.4819 53.6967H27.234L25.1606 48.2292H23.3733L21.2991 53.6967H23.0308L23.3029 52.914ZM24.804 51.6365H23.7149L24.2599 50.0588L24.804 51.6365ZM31.8183 48.2292V53.6967H35.5953V52.2721H33.4665V48.2292H31.8183ZM41.9889 48.2292H40.3338V53.6967H41.9889V48.2292ZM48.2214 53.6967H49.8687V49.6538H51.3284V48.2292H46.7547V49.6538H48.2214V53.6967ZM57.4623 53.6967H59.1175V51.6506L61.0236 48.2292H59.2153L58.3075 50.0799L57.3857 48.2292H55.5703L57.4623 51.6717V53.6967Z" fill="white"/>
<path fill-rule="evenodd" clip-rule="evenodd" d="M28.9256 36.4044C29.7092 37.2971 31.7245 39.4832 31.7245 39.5404C31.3882 39.7711 29.9056 40.7774 28.5612 40.8347C27.414 40.6049 26.7422 40.0581 26.7422 38.7058C26.7986 37.9293 27.4421 37.1237 28.9256 36.4044ZM-0.345703 44.5624H9.9112L9.91208 37.1668L12.7955 44.5624L18.4557 44.5509L21.4438 37.2399C22.0267 35.5504 23.2936 33.9788 25.3714 32.9822C24.2797 31.975 23.6361 30.5082 23.5797 29.0414C23.6167 27.277 24.5253 25.5902 26.552 24.6604L18.6397 24.6578L15.6304 31.9996L12.6255 24.6692H-0.345703V44.5624ZM42.7615 43.836L42.7632 37.1668L45.85 44.5624L51.6652 44.5509L54.5626 37.1554V44.5509H64.8204V24.6578H51.8192L48.6356 31.9996L45.6994 24.6692L34.0655 24.664C36.1425 25.6632 37.1822 27.5421 37.1822 29.5019C37.1822 31.4573 36.0905 33.5289 33.9071 34.6497L35.6424 36.5206C36.146 36.0029 36.4823 35.6569 36.9577 34.7659H42.3318C41.1846 36.8939 40.2884 38.13 38.9448 39.7711L42.7615 43.836ZM21.4905 41.4642L21.4993 44.5509L24.5702 44.5518C23.8263 44.2243 23.1536 43.7744 22.6007 43.1942C22.1218 42.7161 21.7493 42.1236 21.4905 41.4642ZM31.9596 44.5562L36.3899 44.5588L34.887 42.9063C34.1052 43.5851 33.09 44.1512 31.9596 44.5562ZM30.3528 31.5145C29.3174 30.7952 28.6457 30.105 28.6457 29.0414C28.6457 28.2068 29.3174 27.5156 30.5764 27.5156C32.0045 27.5746 32.4799 28.3221 32.4799 29.1559C32.4799 30.105 31.9481 30.7952 30.3528 31.5145Z" fill="url(#paint1_radial_5518_15056)"/>
</g>
<g clip-path="url(#clip1_5518_15056)">
<path d="M75.1133 38.3172H85.421V34.9323H80.2585L82.3202 33.5289C83.7242 32.3881 84.8596 31.5763 85.239 29.8651C85.4672 28.8311 85.3199 27.7288 84.7883 26.8063C83.9688 25.3837 82.3395 24.6575 80.4559 24.6575C78.1284 24.6575 75.9424 25.6732 75.25 28.0375L78.3056 29.3293C78.632 28.5233 79.5285 27.9269 80.3018 27.9269C80.9923 27.9269 81.6018 28.3117 81.7559 28.8436C82.0333 29.8035 80.5146 30.7741 79.8714 31.281L75.1133 34.9323V38.3172ZM92.6549 24.6661C88.881 24.6661 85.8216 27.722 85.8216 31.4917C85.8216 35.2613 88.881 38.3172 92.6549 38.3172V34.9054C90.7675 34.9054 89.2373 33.3769 89.2373 31.4917C89.2373 29.6064 90.7675 28.077 92.6549 28.077V24.6661Z" fill="#387B22"/>
<path d="M75.1132 44.0539H78.0195V43.1641H76.5028L77.0709 42.7332C77.4031 42.4821 77.64 42.2686 77.7826 42.0935C77.9289 41.9137 78.0002 41.7194 78.0002 41.5058C78.0002 41.1557 77.8721 40.8671 77.6208 40.6344C77.3694 40.4025 77.0286 40.2842 76.5875 40.2842C76.2418 40.2842 75.9385 40.365 75.6775 40.5209C75.4165 40.6776 75.2413 40.9095 75.1507 41.2173L76.0473 41.5962C76.1368 41.3741 76.3314 41.2173 76.5451 41.2173C76.7772 41.2173 76.9005 41.3596 76.9005 41.5154C76.9005 41.6857 76.7868 41.8281 76.4267 42.1128L75.1132 43.1641V44.0539ZM78.4605 42.207C78.4605 42.9323 78.7542 43.6422 79.3898 43.9548C79.6074 44.0587 79.8539 44.1106 80.1293 44.1106C80.4038 44.1106 80.6503 44.0587 80.8689 43.95C81.0914 43.8413 81.2666 43.6941 81.3995 43.5094C82.2055 42.4254 81.8261 40.2794 80.1428 40.2842C79.0152 40.2842 78.4605 41.2548 78.4605 42.207ZM80.1342 41.274C80.3239 41.274 80.4606 41.3644 80.5511 41.5491C80.6407 41.7338 80.6888 41.9512 80.6888 42.2022C80.6888 42.4485 80.6407 42.662 80.5511 42.8467C80.4606 43.0266 80.3191 43.116 80.1342 43.116C79.9493 43.116 79.8116 43.0266 79.721 42.8467C79.6315 42.662 79.5843 42.4485 79.5843 42.2022C79.5747 41.7482 79.7355 41.2836 80.1342 41.274ZM83.4998 40.3458V44.0539H86.0651V43.0881H84.6188V40.3458H83.4998ZM89.1987 40.3458H86.5149V44.0539H89.2131V43.116H87.6155V42.6187H89.0754V41.7425H87.6155V41.2788H89.1987V40.3458ZM90.5449 44.0539H91.6639V41.3115H92.6548V40.3458H89.5492V41.3115H90.5449V44.0539ZM78.5077 47.7302H78.5125V49.6722H79.617V45.9642H78.1899L77.4503 48.2371L76.6684 45.9642H75.2884V49.6722H76.3651V47.759H76.3737L77.043 49.6722H77.8538L78.5077 47.7302ZM80.6648 44.7041L81.2291 45.6323H82.2152L82.7795 44.7041H81.9542L81.7221 45.1446L81.5324 44.7041H80.6648ZM83.0684 45.9642H80.3855V49.6722H83.0828V48.7344H81.4852V48.2371H82.9451V47.3608H81.4852V46.8962H83.0684V45.9642ZM84.8316 47.7206H84.8374L86.1171 49.6722H87.2448V45.9642H86.1354V47.7821H86.1316L84.9462 45.9642H83.7222V49.6722H84.8316V47.7206ZM89.763 44.7089H88.6816L88.151 45.6371H88.9329L89.763 44.7089ZM89.1371 45.9642H88.0133V49.6722H89.1371V45.9642ZM93.1238 47.7302H93.1286V49.6722H94.2331V45.9642H92.807L92.0664 48.2371L91.2845 45.9642H89.9045V49.6722H90.9812V47.759H90.9908L91.6591 49.6722H92.4699L93.1238 47.7302ZM97.6854 45.9642H95.0016V49.6722H97.6989V48.7344H96.1013V48.2371H97.5622V47.3608H96.1013V46.8962H97.6854V45.9642ZM76.6164 55.3425C77.5457 55.3425 78.0859 54.8876 78.0859 54.1488C78.0859 53.841 77.9723 53.5948 77.7489 53.4188C77.5264 53.2399 77.1797 53.0783 76.706 52.9407C76.4122 52.8561 76.2649 52.7608 76.2649 52.6521C76.2649 52.5242 76.3737 52.4348 76.5682 52.4348C76.8485 52.4348 77.0478 52.5665 77.1663 52.8272L78.0378 52.354C77.8057 51.7999 77.3271 51.52 76.6116 51.52C76.2129 51.52 75.8759 51.6297 75.6014 51.8519C75.3308 52.0741 75.1941 52.3636 75.1941 52.7185C75.1941 53.363 75.6534 53.6987 76.5066 53.9257C76.8388 54.0161 77.0045 54.1056 77.0045 54.2056C77.0045 54.3335 76.8716 54.423 76.6202 54.423C76.289 54.423 76.0521 54.272 75.9144 53.9642L75.0371 54.447C75.2933 55.0434 75.819 55.3425 76.6164 55.3425ZM78.1947 51.5816L79.4938 55.2896H80.6648L81.9638 51.5816H80.7505L80.0908 53.6843L79.4273 51.5816H78.1947ZM82.6697 50.3225L83.234 51.2507H84.2201L84.7844 50.3225H83.9601L83.727 50.763L83.5383 50.3225H82.6697ZM85.0742 51.5816H82.3904V55.2896H85.0877V54.3528H83.4901V53.8555H84.951V52.9792H83.4901V52.5146H85.0742V51.5816ZM86.4253 55.2896H87.5443V52.5483H88.5352V51.5816H85.4296V52.5483H86.4253V55.2896ZM93.1151 55.2896L92.2995 53.8641C92.7588 53.6698 92.9861 53.3149 92.9861 52.7993C92.9861 52.3963 92.8493 52.0933 92.5691 51.8894C92.2898 51.6855 91.9249 51.5816 91.4694 51.5816H89.9614V55.2896H91.0852V54.0536H91.2036L91.896 55.2896H93.1151ZM91.0852 52.4915H91.4415C91.7352 52.4915 91.8825 52.605 91.8825 52.8368C91.8825 53.0407 91.7352 53.1783 91.4366 53.1783H91.0852V52.4915ZM96.3199 51.5816H93.6361V55.2896H96.3334V54.3528H94.7358V53.8555H96.1967V52.9792H94.7358V52.5146H96.3199V51.5816ZM97.9079 54.7596H99.1925L99.387 55.2896H100.577L99.1684 51.5816H97.9551L96.5472 55.2896H97.723L97.9079 54.7596ZM98.9267 53.893H98.1871L98.5569 52.8224L98.9267 53.893ZM100.923 51.5816V55.2896H103.488V54.3239H102.042V51.5816H100.923ZM105.062 51.5816H103.938V55.2896H105.062V51.5816ZM106.527 55.2896H107.646V52.5483H108.636V51.5816H105.531V52.5483H106.527V55.2896Z" fill="#387B22"/>
</g>
<defs>
<radialGradient id="paint0_radial_5518_15056" cx="0" cy="0" r="1" gradientTransform="matrix(41.7271 0.670455 -0.894387 42.0653 31.9587 51.0095)" gradientUnits="userSpaceOnUse">
<stop stop-color="#00A8F3"/>
<stop offset="1" stop-color="#0C5C9B"/>
</radialGradient>
<radialGradient id="paint1_radial_5518_15056" cx="0" cy="0" r="1" gradientTransform="matrix(62.3905 0.493575 0.516712 41.7506 31.8273 34.7353)" gradientUnits="userSpaceOnUse">
<stop stop-color="#EB0102"/>
<stop offset="1" stop-color="#920000"/>
</radialGradient>
<clipPath id="clip0_5518_15056">
<rect width="85.5233" height="80" fill="white"/>
</clipPath>
<clipPath id="clip1_5518_15056">
<rect width="33.6739" height="30.6851" fill="white" transform="translate(75 24.6575)"/>
</clipPath>
</defs>
</svg>
