<?xml version="1.0" encoding="utf-8"?>
<!-- Generator: Adobe Illustrator 23.0.0, SVG Export Plug-In . SVG Version: 6.00 Build 0)  -->
<svg version="1.1" baseProfile="tiny" id="Vrstva_1"
	 xmlns="http://www.w3.org/2000/svg" xmlns:xlink="http://www.w3.org/1999/xlink" x="0px" y="0px" viewBox="0 0 226.77 170.08"
	 xml:space="preserve">
<path fill="#CD112A" d="M147.93,39.07c-1.19,2.36-2.79,4.58-4.75,6.55c-0.65,0.65-1.35,1.27-2.09,1.86c0.44,0.87,0.65,1.84,0.6,2.84
	c-0.14,3.08-2.64,5.48-5.7,5.48c0,0-0.17,0-0.26-0.01c-7.43-0.29-14.96-0.44-22.37-0.44c-7.42,0-14.94,0.15-22.37,0.44
	c-0.04,0-0.23,0.01-0.23,0.01c-3.06,0-5.57-2.41-5.7-5.49c-0.04-1,0.17-1.97,0.6-2.84c-0.74-0.59-1.44-1.21-2.09-1.86
	c-1.96-1.96-3.55-4.18-4.75-6.55H0v79.37h226.77V39.07H147.93z"/>
<g>
	<path fill="#2D2926" d="M35.62,139.25c0-4.44-3.62-8.06-8.06-8.06H17v26.13h3.59v-10.02h6.16l5.87,10.02h4.13l-6.26-10.58
		C33.54,145.56,35.62,142.58,35.62,139.25z M20.6,134.64h6.97c2.46,0,4.46,2.07,4.46,4.61s-2,4.61-4.46,4.61H20.6V134.64z"/>
	<polygon fill="#2D2926" points="53.16,145.87 64.25,145.87 64.25,142.43 53.16,142.43 53.16,134.64 65.14,134.64 65.14,131.19 
		49.56,131.19 49.56,157.32 65.32,157.32 65.32,153.88 53.16,153.88 	"/>
	<path fill="#2D2926" d="M86.91,131.19l-10.04,26.13h3.81l2.33-6.15h11.13l2.32,6.15h3.82l-10.04-26.13H86.91z M92.83,147.72h-8.52
		l4.26-11.33L92.83,147.72z"/>
	<polygon fill="#2D2926" points="116.49,131.19 112.89,131.19 112.89,157.32 127.93,157.32 127.93,153.88 116.49,153.88 	"/>
	<rect x="141.16" y="131.19" fill="#2D2926" width="3.59" height="26.13"/>
	<polygon fill="#2D2926" points="157.98,134.64 165.67,134.64 165.67,157.32 169.26,157.32 169.26,134.64 176.95,134.64 
		176.95,131.19 157.98,131.19 	"/>
	<polygon fill="#2D2926" points="205.66,131.19 198.52,142.96 191.35,131.19 187.25,131.19 196.69,146.59 196.69,157.32 
		200.28,157.32 200.28,146.66 209.76,131.19 	"/>
</g>
<g>
	<path fill="#FFFFFF" d="M48.11,71.76c0,8.15-6.47,14.62-14.87,14.62h-7.65v14.31H17V57.14h16.24
		C41.64,57.14,48.11,63.61,48.11,71.76z M39.58,71.76c0-3.79-2.67-6.59-6.34-6.59h-7.65v13.19h7.65
		C36.91,78.35,39.58,75.49,39.58,71.76z"/>
	<path fill="#FFFFFF" d="M70.13,68.96v8.96c-4.17-0.5-9.46,1.37-9.46,7.9v14.87h-8.03v-31.1h8.03v5.35
		C62.29,70.7,66.21,68.96,70.13,68.96z"/>
	<path fill="#FFFFFF" d="M89.16,94.28c3.11,0,5.6-1.31,6.97-3.11l6.47,3.73c-2.92,4.23-7.59,6.66-13.56,6.66
		c-10.45,0-17.04-7.15-17.04-16.42c0-9.27,6.66-16.42,16.42-16.42c9.21,0,15.74,7.28,15.74,16.42c0,1.18-0.13,2.24-0.31,3.3H80.39
		C81.51,92.53,84.93,94.28,89.16,94.28z M96.13,82.21c-1-4.48-4.36-6.28-7.71-6.28c-4.29,0-7.22,2.3-8.15,6.28H96.13z"/>
	<path fill="#FFFFFF" d="M155.9,81.52v19.16h-8.02v-18.6c0-3.67-1.87-5.91-5.23-5.91c-3.55,0-5.79,2.36-5.79,7.03v17.48h-8.02v-18.6
		c0-3.67-1.87-5.91-5.23-5.91c-3.42,0-5.85,2.36-5.85,7.03v17.48h-8.02v-31.1h8.02v3.29c1.74-2.61,4.67-4.17,8.65-4.17
		c3.86,0,6.72,1.62,8.46,4.48c1.93-2.8,5.04-4.48,9.27-4.48C151.23,68.71,155.9,73.75,155.9,81.52z"/>
	<path fill="#FFFFFF" d="M161.8,60.93c0-2.67,2.24-4.98,4.91-4.98c2.74,0,4.98,2.3,4.98,4.98c0,2.67-2.24,4.91-4.98,4.91
		C164.04,65.85,161.8,63.61,161.8,60.93z M162.73,69.58h8.02v31.1h-8.02V69.58z"/>
	<path fill="#FFFFFF" d="M209.76,69.58v31.1h-8.02v-3.67c-2.24,2.8-5.6,4.54-10.14,4.54c-8.27,0-15.12-7.15-15.12-16.42
		c0-9.27,6.84-16.42,15.12-16.42c4.54,0,7.9,1.74,10.14,4.54v-3.67H209.76z M201.74,85.13c0-5.22-3.67-8.77-8.65-8.77
		c-4.92,0-8.58,3.55-8.58,8.77c0,5.23,3.67,8.77,8.58,8.77C198.06,93.9,201.74,90.36,201.74,85.13z"/>
</g>
<g>
	<path fill="#2D2926" d="M129.23,41.01l1.3,0.25c0.05,0.01,0.11,0.02,0.15,0.02c0.38,0,0.72-0.27,0.79-0.65l0.25-1.3
		c0.09-0.44-0.2-0.86-0.63-0.95l-1.3-0.25c-0.44-0.08-0.86,0.2-0.94,0.64l-0.25,1.3c-0.04,0.21,0,0.42,0.12,0.6
		C128.84,40.84,129.03,40.97,129.23,41.01z"/>
	<path fill="#2D2926" d="M115.86,33.2h5.57c0.45,0,0.8-0.36,0.8-0.81v-6.32c0-0.45-0.36-0.81-0.8-0.81h-5.57
		c-0.45,0-0.81,0.36-0.81,0.81v6.32C115.05,32.84,115.41,33.2,115.86,33.2z M116.66,26.88h3.96v4.71h-3.96V26.88z"/>
	<path fill="#2D2926" d="M105.35,33.2h5.57c0.45,0,0.81-0.36,0.81-0.81v-6.32c0-0.45-0.36-0.81-0.81-0.81h-5.57
		c-0.44,0-0.8,0.36-0.8,0.81v6.32C104.54,32.84,104.9,33.2,105.35,33.2z M106.15,26.88h3.96v4.71h-3.96V26.88z"/>
	<path fill="#2D2926" d="M143.55,18.93c-2.59-2.59-6.21-4.01-10.19-4.01c-3.75,0-7.55,1.25-10.92,3.49l-5.71-6.11
		c0.85-0.84,1.39-2,1.39-3.29c0-2.54-2.06-4.6-4.59-4.6c-2.54,0-4.6,2.06-4.6,4.6c0,1.28,0.53,2.44,1.38,3.27l-5.83,6.23
		c-3.4-2.3-7.26-3.6-11.07-3.6c-3.98,0-7.6,1.42-10.19,4.01c-3,3-4.4,7.24-3.92,11.93c0.47,4.63,2.7,9.16,6.29,12.75
		c1.44,1.44,3.05,2.63,4.75,3.6c-0.64,0.1-1.23,0.4-1.67,0.88c-0.52,0.57-0.79,1.32-0.76,2.1c0.07,1.55,1.33,2.78,2.87,2.78
		c0.04,0,0.08,0,0.12,0c7.46-0.29,15.02-0.44,22.48-0.44c7.45,0,15.02,0.15,22.5,0.44c1.6,0.07,2.92-1.18,2.99-2.77
		c0.04-0.78-0.23-1.52-0.76-2.1c-0.45-0.49-1.03-0.79-1.67-0.89c1.7-0.97,3.31-2.15,4.75-3.59c3.59-3.59,5.82-8.12,6.29-12.75
		C147.94,26.17,146.55,21.93,143.55,18.93z M113.53,6.03c1.64,0,2.98,1.34,2.98,2.99c0,1.64-1.34,2.99-2.98,2.99
		c-1.65,0-2.99-1.34-2.99-2.99C110.55,7.37,111.88,6.03,113.53,6.03z M111.66,13.2c0.57,0.26,1.21,0.41,1.88,0.41
		c0.66,0,1.28-0.15,1.85-0.4l11.3,12.08l-1.91,21.28h-6.7v-6.5c0-0.06-0.01-0.12-0.02-0.17c-0.19-2.5-2.27-4.44-4.79-4.44
		c-2.52,0-4.6,1.94-4.79,4.43c-0.01,0.06-0.02,0.12-0.02,0.18v6.5h-6.14l-1.92-21.32L111.66,13.2z M139.83,27.08
		c-2.02-2.66-5.3-4.13-9.25-4.13c-1.16,0-2.34,0.14-3.52,0.38l-1.87-1.99c1.92-0.83,3.93-1.3,5.91-1.3c2.63,0,5.02,0.81,6.91,2.33
		c3.37,2.72,4.61,7.26,3.78,11.99C142,31.68,141.39,29.13,139.83,27.08z M127.3,36.49l3.67-3.21l4.68,6.14l-1.48,7.68
		c-2.6-0.09-5.2-0.17-7.81-0.23L127.3,36.49z M116.46,40.2v6.38h-6.4V40.2c0-0.03,0.01-0.06,0.01-0.09c0.08-1.7,1.48-3.04,3.19-3.04
		c1.71,0,3.11,1.33,3.19,3.04C116.45,40.14,116.46,40.17,116.46,40.2z M84.98,34.35c-0.83-4.72,0.42-9.26,3.78-11.98
		c1.89-1.52,4.28-2.33,6.91-2.33c2.05,0,4.12,0.48,6.1,1.36l-1.85,1.97c-1.25-0.28-2.51-0.42-3.74-0.42c-3.94,0-7.23,1.46-9.25,4.13
		C85.39,29.13,84.77,31.67,84.98,34.35z M100.71,46.87c-2.68,0.06-5.35,0.14-8.02,0.24l-1.48-7.68l4.68-6.14l3.9,3.41L100.71,46.87z
		 M80.9,30.7c-0.42-4.2,0.81-7.98,3.46-10.63c2.29-2.28,5.5-3.54,9.05-3.54c3.41,0,6.88,1.14,9.96,3.17l-0.45,0.48
		c-2.34-1.12-4.81-1.75-7.25-1.75c-3,0-5.74,0.93-7.92,2.69c-5.63,4.55-6.1,13.51-1.45,20.88C83.23,38.76,81.31,34.77,80.9,30.7z
		 M89.58,39.45l0.62,3.25c-3.91-4.89-4.9-10.8-1.98-14.65c1.71-2.25,4.54-3.49,7.96-3.49c0.85,0,1.71,0.1,2.57,0.25
		c-0.02,0.12-0.03,0.24,0,0.35l0.83,9.2l-3.25-2.84c-0.07-0.07-0.16-0.13-0.26-0.17c-0.14-0.06-0.29-0.08-0.43-0.05
		c-0.14,0.02-0.29,0.09-0.4,0.19c-0.05,0.04-0.1,0.09-0.13,0.15l-5.41,7.09C89.55,38.95,89.51,39.21,89.58,39.45z M136.92,49.18
		c0.23,0.26,0.35,0.59,0.34,0.94c-0.03,0.69-0.59,1.24-1.26,1.24l-0.06,0c-7.49-0.29-15.09-0.44-22.56-0.44
		c-7.48,0-15.07,0.15-22.55,0.44h-0.05c-0.68,0-1.23-0.54-1.26-1.24c-0.02-0.35,0.1-0.68,0.34-0.94c0.23-0.25,0.54-0.39,0.87-0.41
		c7.53-0.3,15.16-0.45,22.67-0.45c7.52,0,15.14,0.15,22.65,0.45C136.38,48.79,136.69,48.93,136.92,49.18z M136.69,42.54l0.59-3.06
		c0.08-0.25,0.04-0.53-0.12-0.74l-5.4-7.09c-0.04-0.05-0.08-0.11-0.13-0.15c-0.08-0.07-0.17-0.12-0.27-0.15
		c-0.18-0.06-0.39-0.06-0.57,0.02c-0.09,0.04-0.17,0.09-0.24,0.16l-3.02,2.64l0.82-9.08c0.01-0.11-0.01-0.21-0.04-0.32
		c0.77-0.12,1.54-0.2,2.29-0.2c3.43,0,6.26,1.24,7.97,3.49C141.43,31.86,140.49,37.68,136.69,42.54z M145.87,30.7
		c-0.41,4.07-2.33,8.06-5.4,11.31c4.65-7.37,4.19-16.34-1.45-20.89c-2.18-1.76-4.92-2.69-7.92-2.69c-2.38,0-4.79,0.59-7.07,1.66
		l-0.47-0.5c3.04-1.96,6.45-3.06,9.81-3.06c3.55,0,6.76,1.26,9.05,3.54C145.06,22.73,146.29,26.5,145.87,30.7z"/>
	<path fill="#2D2926" d="M95.13,39.32l0.25,1.3c0.07,0.39,0.41,0.65,0.79,0.65c0.05,0,0.1-0.01,0.15-0.02l1.3-0.25
		c0.21-0.04,0.4-0.17,0.51-0.34c0.12-0.18,0.16-0.39,0.12-0.6l-0.25-1.3c-0.09-0.44-0.51-0.72-0.95-0.64l-1.3,0.25
		C95.33,38.47,95.05,38.89,95.13,39.32z"/>
</g>
</svg>
