<svg width="590px" height="104px" viewBox="0 0 590 104" version="1.1" xmlns="http://www.w3.org/2000/svg" xmlns:xlink="http://www.w3.org/1999/xlink">
    <title>Prodejme.to</title>
    <g id="Page-1" stroke="none" stroke-width="1" fill="none" fill-rule="evenodd">
        <g id="6" transform="translate(-490.000000, -296.000000)" fill-rule="nonzero">
            <g id="Group-2" transform="translate(200.000000, 200.000000)">
                <g id="Prodejme.to" transform="translate(290.000000, 96.000000)">
                    <path d="M13.2833021,51.6062323 L13.2833021,38.1274788 L30.108818,38.1274788 C32.2489056,38.1274788 34.2045028,37.6855524 35.9756098,36.8016997 C37.7467167,35.917847 39.148843,34.6288952 40.1819887,32.9348442 C41.2151345,31.2407932 41.7317073,29.1784703 41.7317073,26.7478754 C41.7317073,24.3909348 41.2151345,22.3654391 40.1819887,20.6713881 C39.148843,18.9773371 37.7467167,17.6883853 35.9756098,16.8045326 C34.2045028,15.9206799 32.2489056,15.4787535 30.108818,15.4787535 L13.2833021,15.4787535 L13.2833021,2 L32.6547842,2 C37.5991245,2 42.0637899,2.99433428 46.0487805,4.98300283 C50.0337711,6.97167139 53.1885553,9.82577904 55.5131332,13.5453258 C57.8377111,17.2648725 59,21.6657224 59,26.7478754 C59,31.8300283 57.8377111,36.2308782 55.5131332,39.9504249 C53.1885553,43.6699717 50.0337711,46.5424929 46.0487805,48.5679887 C42.0637899,50.5934844 37.5991245,51.6062323 32.6547842,51.6062323 L13.2833021,51.6062323 Z M0,80 L0,2 L17.3789869,2 L17.3789869,80 L0,80 Z" id="Shape" fill="#141634"></path>
                    <path d="M65,80 L65,26.108871 L82.0440415,26.108871 L82.0440415,80 L65,80 Z M82.0440415,50.3931452 L74.9145078,44.8487903 C76.3255613,38.5651882 78.7020725,33.6861559 82.0440415,30.2116935 C85.3860104,26.7372312 90.0276339,25 95.9689119,25 C98.5682211,25 100.8519,25.3881048 102.819948,26.1643145 C104.787997,26.9405242 106.51468,28.1418011 108,29.7681452 L97.8626943,42.5201613 C97.1200345,41.7069892 96.1917098,41.078629 95.0777202,40.6350806 C93.9637306,40.1915323 92.701209,39.9697581 91.2901554,39.9697581 C88.4680484,39.9697581 86.2215026,40.8383737 84.5505181,42.5756048 C82.8795337,44.312836 82.0440415,46.9186828 82.0440415,50.3931452 Z" id="Shape" fill="#141634"></path>
                    <path d="M133.5,81 C127.954887,81 122.945802,79.7690289 118.472744,77.3070866 C113.999687,74.8451444 110.469298,71.4829396 107.881579,67.2204724 C105.29386,62.9580052 104,58.1811024 104,52.8897638 C104,47.5984252 105.29386,42.8582677 107.881579,38.6692913 C110.469298,34.480315 113.981203,31.1548556 118.417293,28.6929134 C122.853383,26.2309711 127.880952,25 133.5,25 C139.119048,25 144.146617,26.2125984 148.582707,28.6377953 C153.018797,31.0629921 156.530702,34.3884514 159.118421,38.6141732 C161.70614,42.839895 163,47.5984252 163,52.8897638 C163,58.1811024 161.70614,62.9580052 159.118421,67.2204724 C156.530702,71.4829396 153.018797,74.8451444 148.582707,77.3070866 C144.146617,79.7690289 139.119048,81 133.5,81 Z M133.5,65.6771654 C135.93985,65.6771654 138.08396,65.144357 139.932331,64.0787402 C141.780702,63.0131234 143.203947,61.5065617 144.202068,59.5590551 C145.200188,57.6115486 145.699248,55.3884514 145.699248,52.8897638 C145.699248,50.3910761 145.181704,48.2047244 144.146617,46.3307087 C143.111529,44.4566929 141.688283,42.9868766 139.87688,41.9212598 C138.065476,40.855643 135.93985,40.3228346 133.5,40.3228346 C131.134085,40.3228346 129.026942,40.855643 127.178571,41.9212598 C125.330201,42.9868766 123.888471,44.4750656 122.853383,46.3858268 C121.818296,48.2965879 121.300752,50.5013123 121.300752,53 C121.300752,55.4251969 121.818296,57.6115486 122.853383,59.5590551 C123.888471,61.5065617 125.330201,63.0131234 127.178571,64.0787402 C129.026942,65.144357 131.134085,65.6771654 133.5,65.6771654 Z" id="Shape" fill="#141634"></path>
                    <path d="M191.129594,81 C186.058027,81 181.556093,79.7894022 177.623791,77.3682065 C173.691489,74.9470109 170.604449,71.6453804 168.362669,67.4633152 C166.12089,63.28125 165,58.5122283 165,53.15625 C165,47.8002717 166.12089,43.03125 168.362669,38.8491848 C170.604449,34.6671196 173.691489,31.3654891 177.623791,28.9442935 C181.556093,26.5230978 186.058027,25.3125 191.129594,25.3125 C194.804642,25.3125 198.130561,26.0095109 201.10735,27.4035326 C204.084139,28.7975543 206.546422,30.7235054 208.494197,33.1813859 C210.441973,35.6392663 211.526112,38.4456522 211.746615,41.6005435 L211.746615,64.1616848 C211.526112,67.3165761 210.460348,70.1596467 208.549323,72.6908967 C206.638298,75.2221467 204.176015,77.2398098 201.162476,78.7438859 C198.148936,80.247962 194.804642,81 191.129594,81 Z M194.106383,65.8125 C196.531915,65.8125 198.626692,65.2805707 200.390716,64.216712 C202.154739,63.1528533 203.551257,61.6671196 204.580271,59.7595109 C205.609284,57.8519022 206.123791,55.6508152 206.123791,53.15625 C206.123791,50.6616848 205.62766,48.4789402 204.635397,46.6080163 C203.643133,44.7370924 202.246615,43.2513587 200.445841,42.1508152 C198.645068,41.0502717 196.568665,40.5 194.216634,40.5 C191.864603,40.5 189.788201,41.0502717 187.987427,42.1508152 C186.186654,43.2513587 184.753385,44.7554348 183.687621,46.6630435 C182.621857,48.5706522 182.088975,50.7350543 182.088975,53.15625 C182.088975,55.5774457 182.603482,57.7418478 183.632495,59.6494565 C184.661509,61.5570652 186.094778,63.0611413 187.932302,64.1616848 C189.769826,65.2622283 191.827853,65.8125 194.106383,65.8125 Z M222,79.8994565 L205.462282,79.8994565 L205.462282,65.482337 L207.998066,52.4959239 L205.131528,39.5095109 L205.131528,0 L222,0 L222,79.8994565 Z" id="Shape" fill="#141634"></path>
                    <path d="M258.102767,81 C252.274045,81 247.090909,79.8057743 242.55336,77.4173228 C238.01581,75.0288714 234.455863,71.7034121 231.873518,67.4409449 C229.291173,63.1784777 228,58.3648294 228,53 C228,47.6351706 229.272727,42.839895 231.818182,38.6141732 C234.363636,34.3884514 237.812912,31.0629921 242.166008,28.6377953 C246.519104,26.2125984 251.42556,25 256.885375,25 C262.197628,25 266.88274,26.1391076 270.940711,28.4173228 C274.998682,30.6955381 278.189723,33.855643 280.513834,37.8976378 C282.837945,41.9396325 284,46.5695538 284,51.7874016 C284,52.7427822 283.944664,53.7532808 283.833992,54.8188976 C283.72332,55.8845144 283.520422,57.1154856 283.225296,58.511811 L236.853755,58.6220472 L236.853755,47.0472441 L276.031621,46.9370079 L268.727273,51.7874016 C268.653491,48.7007874 268.173913,46.1469816 267.288538,44.1259843 C266.403162,42.1049869 265.093544,40.5616798 263.359684,39.496063 C261.625823,38.4304462 259.504611,37.8976378 256.996047,37.8976378 C254.339921,37.8976378 252.034256,38.503937 250.079051,39.7165354 C248.123847,40.9291339 246.611331,42.6377953 245.541502,44.8425197 C244.471673,47.0472441 243.936759,49.7296588 243.936759,52.8897638 C243.936759,56.0498688 244.508564,58.7506562 245.652174,60.992126 C246.795784,63.2335958 248.418972,64.9606299 250.521739,66.1732283 C252.624506,67.3858268 255.114625,67.992126 257.992095,67.992126 C260.648221,67.992126 263.046113,67.5328084 265.185771,66.6141732 C267.325428,65.6955381 269.206851,64.3175853 270.83004,62.480315 L280.126482,71.7401575 C277.470356,74.8267717 274.26087,77.1417323 270.498024,78.6850394 C266.735178,80.2283465 262.603426,81 258.102767,81 Z" id="Path" fill="#141634"></path>
                    <path d="M286.028169,104 C282.146479,104 278.850704,103.360135 276.140845,102.080405 C273.430986,100.800674 271.050704,98.9907703 269,96.6506922 L279.43662,86.2300319 C280.242254,87.1806887 281.066197,87.8571175 281.908451,88.2593184 C282.750704,88.6615193 283.721127,88.8626198 284.819718,88.8626198 C286.430986,88.8626198 287.767606,88.3872914 288.829577,87.4366347 C289.891549,86.485978 290.422535,85.0234292 290.422535,83.0489883 L290.422535,26.7774228 L307.230986,26.7774228 L307.230986,82.829606 C307.230986,87.144125 306.315493,90.8736244 304.484507,94.0181044 C302.653521,97.1625843 300.14507,99.6123536 296.959155,101.367412 C293.773239,103.122471 290.129577,104 286.028169,104 Z M298.991549,19.428115 C296.35493,19.428115 294.176056,18.5323039 292.45493,16.7406816 C290.733803,14.9490593 289.873239,12.7735179 289.873239,10.2140575 C289.873239,7.58146965 290.733803,5.38764643 292.45493,3.63258786 C294.176056,1.87752929 296.35493,1 298.991549,1 C301.628169,1 303.788732,1.87752929 305.473239,3.63258786 C307.157746,5.38764643 308,7.58146965 308,10.2140575 C308,12.7735179 307.157746,14.9490593 305.473239,16.7406816 C303.788732,18.5323039 301.628169,19.428115 298.991549,19.428115 Z" id="Shape" fill="#141634"></path>
                    <path d="M317,80 L317,26.108871 L333.780645,26.108871 L333.780645,80 L317,80 Z M351.109677,80 L351.109677,48.5080645 C351.109677,45.7728495 350.287097,43.6475134 348.641935,42.1320565 C346.996774,40.6165995 344.967742,39.858871 342.554839,39.858871 C340.873118,39.858871 339.374194,40.2100134 338.058065,40.9122984 C336.741935,41.6145833 335.7,42.594086 334.932258,43.8508065 C334.164516,45.1075269 333.780645,46.6599462 333.780645,48.5080645 L327.309677,45.625 C327.309677,41.3373656 328.223656,37.6596102 330.051613,34.5917339 C331.87957,31.5238575 334.365591,29.1582661 337.509677,27.4949597 C340.653763,25.8316532 344.2,25 348.148387,25 C351.877419,25 355.222581,25.8501344 358.183871,27.5504032 C361.145161,29.250672 363.503226,31.6162634 365.258065,34.6471774 C367.012903,37.6780914 367.890323,41.3004032 367.890323,45.5141129 L367.890323,80 L351.109677,80 Z M385.219355,80 L385.219355,48.5080645 C385.219355,45.7728495 384.396774,43.6475134 382.751613,42.1320565 C381.106452,40.6165995 379.077419,39.858871 376.664516,39.858871 C374.982796,39.858871 373.483871,40.2100134 372.167742,40.9122984 C370.851613,41.6145833 369.809677,42.594086 369.041935,43.8508065 C368.274194,45.1075269 367.890323,46.6599462 367.890323,48.5080645 L358.23871,47.1774194 C358.384946,42.594086 359.463441,38.6575941 361.474194,35.3679435 C363.484946,32.078293 366.153763,29.5278898 369.480645,27.7167339 C372.807527,25.905578 376.554839,25 380.722581,25 C384.817204,25 388.454839,25.8686156 391.635484,27.6058468 C394.816129,29.343078 397.33871,31.8195565 399.203226,35.0352823 C401.067742,38.2510081 402,42.1135753 402,46.6229839 L402,80 L385.219355,80 Z" id="Shape" fill="#141634"></path>
                    <path d="M436.102767,81 C430.274045,81 425.090909,79.8057743 420.55336,77.4173228 C416.01581,75.0288714 412.455863,71.7034121 409.873518,67.4409449 C407.291173,63.1784777 406,58.3648294 406,53 C406,47.6351706 407.272727,42.839895 409.818182,38.6141732 C412.363636,34.3884514 415.812912,31.0629921 420.166008,28.6377953 C424.519104,26.2125984 429.42556,25 434.885375,25 C440.197628,25 444.88274,26.1391076 448.940711,28.4173228 C452.998682,30.6955381 456.189723,33.855643 458.513834,37.8976378 C460.837945,41.9396325 462,46.5695538 462,51.7874016 C462,52.7427822 461.944664,53.7532808 461.833992,54.8188976 C461.72332,55.8845144 461.520422,57.1154856 461.225296,58.511811 L414.853755,58.6220472 L414.853755,47.0472441 L454.031621,46.9370079 L446.727273,51.7874016 C446.653491,48.7007874 446.173913,46.1469816 445.288538,44.1259843 C444.403162,42.1049869 443.093544,40.5616798 441.359684,39.496063 C439.625823,38.4304462 437.504611,37.8976378 434.996047,37.8976378 C432.339921,37.8976378 430.034256,38.503937 428.079051,39.7165354 C426.123847,40.9291339 424.611331,42.6377953 423.541502,44.8425197 C422.471673,47.0472441 421.936759,49.7296588 421.936759,52.8897638 C421.936759,56.0498688 422.508564,58.7506562 423.652174,60.992126 C424.795784,63.2335958 426.418972,64.9606299 428.521739,66.1732283 C430.624506,67.3858268 433.114625,67.992126 435.992095,67.992126 C438.648221,67.992126 441.046113,67.5328084 443.185771,66.6141732 C445.325428,65.6955381 447.206851,64.3175853 448.83004,62.480315 L458.126482,71.7401575 C455.470356,74.8267717 452.26087,77.1417323 448.498024,78.6850394 C444.735178,80.2283465 440.603426,81 436.102767,81 Z" id="Path" fill="#141634"></path>
                    <path d="M478,81 C475.142857,81 472.761905,80.027027 470.857143,78.0810811 C468.952381,76.1351351 468,73.7927928 468,71.0540541 C468,68.1711712 468.952381,65.7747748 470.857143,63.8648649 C472.761905,61.954955 475.142857,61 478,61 C480.930403,61 483.32967,61.954955 485.197802,63.8648649 C487.065934,65.7747748 488,68.1711712 488,71.0540541 C488,73.7927928 487.065934,76.1351351 485.197802,78.0810811 C483.32967,80.027027 480.930403,81 478,81 Z" id="Path" fill="#2B82FF"></path>
                    <path d="M502.091153,80 L502.091153,4 L518.908847,4 L518.908847,80 L502.091153,80 Z M490,40.6171761 L490,26.2358079 L531,26.2358079 L531,40.6171761 L490,40.6171761 Z" id="Shape" fill="#2B82FF"></path>
                    <path d="M560.5,81 C554.954887,81 549.945802,79.7690289 545.472744,77.3070866 C540.999687,74.8451444 537.469298,71.4829396 534.881579,67.2204724 C532.29386,62.9580052 531,58.1811024 531,52.8897638 C531,47.5984252 532.29386,42.8582677 534.881579,38.6692913 C537.469298,34.480315 540.981203,31.1548556 545.417293,28.6929134 C549.853383,26.2309711 554.880952,25 560.5,25 C566.119048,25 571.146617,26.2125984 575.582707,28.6377953 C580.018797,31.0629921 583.530702,34.3884514 586.118421,38.6141732 C588.70614,42.839895 590,47.5984252 590,52.8897638 C590,58.1811024 588.70614,62.9580052 586.118421,67.2204724 C583.530702,71.4829396 580.018797,74.8451444 575.582707,77.3070866 C571.146617,79.7690289 566.119048,81 560.5,81 Z M560.5,65.6771654 C562.93985,65.6771654 565.08396,65.144357 566.932331,64.0787402 C568.780702,63.0131234 570.203947,61.5065617 571.202068,59.5590551 C572.200188,57.6115486 572.699248,55.3884514 572.699248,52.8897638 C572.699248,50.3910761 572.181704,48.2047244 571.146617,46.3307087 C570.111529,44.4566929 568.688283,42.9868766 566.87688,41.9212598 C565.065476,40.855643 562.93985,40.3228346 560.5,40.3228346 C558.134085,40.3228346 556.026942,40.855643 554.178571,41.9212598 C552.330201,42.9868766 550.888471,44.4750656 549.853383,46.3858268 C548.818296,48.2965879 548.300752,50.5013123 548.300752,53 C548.300752,55.4251969 548.818296,57.6115486 549.853383,59.5590551 C550.888471,61.5065617 552.330201,63.0131234 554.178571,64.0787402 C556.026942,65.144357 558.134085,65.6771654 560.5,65.6771654 Z" id="Shape" fill="#2B82FF"></path>
                </g>
            </g>
        </g>
    </g>
</svg>